<?xml version="1.0" encoding="UTF-8" standalone="no"?>
<!-- Created with Inkscape (http://www.inkscape.org/) -->

<svg
   xmlns:dc="http://purl.org/dc/elements/1.1/"
   xmlns:cc="http://creativecommons.org/ns#"
   xmlns:rdf="http://www.w3.org/1999/02/22-rdf-syntax-ns#"
   xmlns:svg="http://www.w3.org/2000/svg"
   xmlns="http://www.w3.org/2000/svg"
   version="1.1"
   width="949.3385"
   height="250.40997"
   id="svg2">
  <metadata
     id="metadata3101">
    <rdf:RDF>
      <cc:Work
         rdf:about="">
        <dc:format>image/svg+xml</dc:format>
        <dc:type
           rdf:resource="http://purl.org/dc/dcmitype/StillImage" />
        <dc:title></dc:title>
      </cc:Work>
    </rdf:RDF>
  </metadata>
  <defs
     id="defs4">
    <clipPath
       id="clipPath2853">
      <path
         d="M 0,300 600,300 600,0 0,0 0,300 z"
         id="path2855" />
    </clipPath>
  </defs>
  <g
     transform="translate(-51.511849,-246.84225)"
     id="g3189">
    <g
       transform="matrix(1.8686213,0,0,-1.8686213,381.48086,387.26578)"
       id="g2857"
       style="fill:#000000">
      <path
         d="m 0,0 c -0.385,-0.903 0.103,-1.643 1.085,-1.643 l 24.959,0 c 0.982,0 1.476,0.742 1.097,1.648 l -12.74,30.504 c -0.379,0.907 -1.004,0.909 -1.389,0.006 L 0,0 z m 8.837,38.865 c 0.386,0.904 1.505,1.643 2.487,1.643 l 4.679,0 c 0.982,0 2.103,-0.738 2.491,-1.641 l 30.203,-70.283 c 0.387,-0.902 -0.099,-1.641 -1.081,-1.641 l -4.481,0 c -0.982,0 -2.103,0.739 -2.491,1.641 l -9.227,21.473 c -0.387,0.902 -1.508,1.64 -2.49,1.64 l -30.626,0 c -0.982,0 -2.106,-0.737 -2.496,-1.638 l -9.316,-21.477 c -0.39,-0.901 -1.514,-1.639 -2.496,-1.639 l -4.084,0 c -0.982,0 -1.47,0.74 -1.084,1.643 L 8.837,38.865 z"
         id="path2859"
         style="fill:#000000;fill-opacity:1;fill-rule:nonzero;stroke:none" />
    </g>
    <g
       transform="matrix(1.8686213,0,0,-1.8686213,527.22061,439.74956)"
       id="g2861"
       style="fill:#000000">
      <path
         d="m 0,0 c 11.731,0 21.771,9.444 21.771,22.169 0,11.93 -9.245,22.367 -21.771,22.367 -11.929,0 -22.268,-8.647 -22.268,-22.467 C -22.268,9.941 -13.321,0 0,0 m 28.333,-3.184 c 0,-0.982 -0.804,-1.786 -1.787,-1.786 l -3.385,0 c -0.983,0 -1.786,0.804 -1.786,1.786 l 0,5.971 c 0,0.983 -0.045,1.786 -0.1,1.786 -0.055,0 -0.757,-0.462 -1.561,-1.027 0,0 -13.949,-9.808 -19.714,-9.808 -17.098,0 -29.226,13.023 -29.226,28.629 0,14.515 11.432,28.433 29.226,28.433 5.964,0 15.31,-2.188 21.175,-10.737 0.11,0 0.2,0.803 0.2,1.786 l 0,52.717 c 0,0.982 0.803,1.786 1.786,1.786 l 3.385,0 c 0.983,0 1.787,-0.804 1.787,-1.786 l 0,-97.75 z"
         id="path2863"
         style="fill:#000000;fill-opacity:1;fill-rule:nonzero;stroke:none" />
    </g>
    <g
       transform="matrix(1.8686213,0,0,-1.8686213,602.65797,262.57997)"
       id="g2865"
       style="fill:#000000">
      <path
         d="m 0,0 c 0,0.982 0.804,1.786 1.786,1.786 l 3.783,0 C 6.552,1.786 7.355,0.982 7.355,0 l 0,-91.336 c 0,-0.983 0.804,-1.787 1.787,-1.787 l 26.848,0 c 0.983,0 1.786,-0.803 1.786,-1.786 l 0,-3.088 c 0,-0.982 -0.803,-1.786 -1.786,-1.786 l -34.204,0 C 0.804,-99.783 0,-98.979 0,-97.997 L 0,0 z"
         id="path2867"
         style="fill:#000000;fill-opacity:1;fill-rule:nonzero;stroke:none" />
    </g>
    <g
       transform="matrix(1.8686213,0,0,-1.8686213,685.31887,350.76283)"
       id="g2869"
       style="fill:#000000">
      <path
         d="m 0,0 c 0,0.982 0.804,1.786 1.786,1.786 l 3.388,0 C 6.156,1.786 6.96,0.982 6.96,0 l 0,-50.805 c 0,-0.983 -0.804,-1.786 -1.786,-1.786 l -3.388,0 C 0.804,-52.591 0,-51.788 0,-50.805 L 0,0 z m 0,19.188 c 0,0.981 0.804,1.785 1.786,1.785 l 3.388,0 c 0.982,0 1.786,-0.804 1.786,-1.785 l 0,-8.957 C 6.96,9.25 6.156,8.446 5.174,8.446 l -3.388,0 C 0.804,8.446 0,9.25 0,10.231 l 0,8.957 z"
         id="path2871"
         style="fill:#000000;fill-opacity:1;fill-rule:nonzero;stroke:none" />
    </g>
    <g
       transform="matrix(1.8686213,0,0,-1.8686213,775.97073,356.52846)"
       id="g2873"
       style="fill:#000000">
      <path
         d="m 0,0 c -12.526,0 -21.771,-10.438 -21.771,-22.367 0,-12.725 10.042,-22.169 21.771,-22.169 13.321,0 22.267,9.941 22.267,22.069 C 22.267,-8.647 11.93,0 0,0 m -28.331,22.273 c 0,0.982 0.804,1.786 1.786,1.786 l 3.386,0 c 0.982,0 1.786,-0.804 1.786,-1.786 l 0,-25.159 c 0,-0.982 0.045,-1.786 0.101,-1.786 0.054,0 0.753,0.467 1.552,1.038 0,0 13.856,9.898 19.72,9.898 17.795,0 29.228,-13.918 29.228,-28.433 0,-15.606 -12.129,-28.629 -29.228,-28.629 -5.666,0 -15.11,1.988 -21.173,10.835 -0.11,0 -0.2,-0.804 -0.2,-1.786 l 0,-5.971 c 0,-0.982 -0.804,-1.786 -1.786,-1.786 l -3.386,0 c -0.982,0 -1.786,0.804 -1.786,1.786 l 0,69.993 z"
         id="path2875"
         style="fill:#000000;fill-opacity:1;fill-rule:nonzero;stroke:none" />
    </g>
    <g
       transform="matrix(1.8686213,0,0,-1.8686213,849.16089,350.76283)"
       id="g2877"
       style="fill:#000000">
      <path
         d="m 0,0 c 0,0.982 0.804,1.786 1.786,1.786 l 3.386,0 C 6.154,1.786 6.958,0.982 6.958,0 l 0,-4.281 c 0,-0.982 0.045,-1.786 0.1,-1.786 0.055,0 0.687,0.55 1.404,1.221 0,0 8.141,7.626 14.005,8.024 l 0,-5.571 c 0,-0.982 -0.781,-1.974 -1.736,-2.205 0,0 -7.311,-1.767 -9.996,-4.948 -2.384,-2.983 -3.777,-6.86 -3.777,-11.234 l 0,-30.025 c 0,-0.983 -0.804,-1.786 -1.786,-1.786 l -3.386,0 C 0.804,-52.591 0,-51.788 0,-50.805 L 0,0 z"
         id="path2879"
         style="fill:#000000;fill-opacity:1;fill-rule:nonzero;stroke:none" />
    </g>
    <g
       transform="matrix(1.8686213,0,0,-1.8686213,993.4334,402.57241)"
       id="g2881"
       style="fill:#000000">
      <path
         d="m 0,0 c 0.842,0 2.219,-0.007 3.061,-0.017 0,0 1.05,-0.01 0.892,2.028 C 3.824,3.659 3.823,5.379 3.522,7.127 2.928,10.325 1.754,13.635 -0.259,16.905 -4.136,23.664 -12.586,30.722 -24.516,30.821 -40.322,30.523 -52.748,17.6 -52.748,2.19 c 0,-15.793 12.621,-27.95 27.452,-28.415 0.169,-0.004 0.337,-0.007 0.505,-0.007 11.313,0 20.941,6.659 25.588,15.89 l 0.314,0.628 c 0.31,0.708 0.436,1.57 0.282,1.916 -0.155,0.346 -1.373,0.62 -2.056,0.614 -0.683,-0.006 -1.249,-0.011 -1.258,-0.011 l -0.052,0 c -0.019,0 -0.709,-0.005 -1.531,-0.01 -0.822,-0.006 -1.508,-0.011 -1.522,-0.012 -0.016,0 -0.446,-0.548 -0.954,-1.219 0,0 -8.625,-11.344 -18.536,-11.542 -1.334,0 -2.666,0.1 -3.953,0.413 -14.16,3.451 -17.398,18.071 -17.398,18.071 C -46.05,-0.673 -45.51,0 -44.668,0 l 3.968,0 c 0.842,0 1.53,0.688 1.53,1.53 l 0,2.909 c 0,0.842 -0.688,1.531 -1.53,1.531 l -3.359,0 c -0.841,0 -1.668,0.081 -1.836,0.18 -0.167,0.1 -0.159,0.854 0.019,1.677 0,0 0.493,2.287 1.167,3.936 0.002,0.007 0.005,0.012 0.008,0.019 0.022,0.059 0.048,0.116 0.072,0.174 2.273,5.42 6.334,9.072 10.792,11.132 2.978,1.375 6.132,2.037 9.046,2.037 3.122,0 6.477,-0.743 9.598,-2.289 2.224,-1.016 4.306,-2.437 6.136,-4.267 C -5.461,14.974 -3.383,7.184 -3.383,7.184 -3.166,6.37 -3.678,5.712 -4.52,5.721 l -22.951,0.233 c -0.842,0.009 -2.218,0.016 -3.06,0.016 l -1.442,0 c -0.841,0 -1.53,-0.689 -1.53,-1.531 l 0,-2.909 c 0,-0.842 0.689,-1.53 1.53,-1.53 L 0,0 z"
         id="path2883"
         style="fill:#000000;fill-opacity:1;fill-rule:nonzero;stroke:none" />
    </g>
    <g
       transform="matrix(1.8686213,0,0,-1.8686213,139.34939,439.32258)"
       id="g2885">
      <path
         d="M 0,0 C -18.245,0.314 -32.686,14.755 -33,33 -33.314,51.247 -17.771,65.694 0,66 9.018,66.155 9.033,80.156 0,80 -25.907,79.554 -46.554,58.907 -47,33 -47.446,7.092 -25.236,-13.565 0,-14 9.033,-14.155 9.018,-0.155 0,0"
         id="path2887"
         style="fill:#f89734;fill-opacity:1;fill-rule:nonzero;stroke:none" />
    </g>
    <g
       transform="matrix(1.8686213,0,0,-1.8686213,294.44496,334.67979)"
       id="g2889">
      <path
         d="m 0,0 c -0.446,25.907 -21.093,46.554 -47,47 -25.908,0.446 -46.565,-21.764 -47,-47 -0.156,-9.033 13.845,-9.018 14,0 0.314,18.245 14.755,32.686 33,33 18.247,0.314 32.694,-15.229 33,-33 0.155,-9.018 14.156,-9.033 14,0"
         id="path2891"
         style="fill:#f89734;fill-opacity:1;fill-rule:nonzero;stroke:none" />
    </g>
    <g
       transform="matrix(1.8686213,0,0,-1.8686213,201.0139,497.24984)"
       id="g2893">
      <path
         d="M 0,0 C 25.907,0.446 46.554,21.093 47,47 47.446,72.908 25.236,93.565 0,94 -9.033,94.156 -9.018,80.155 0,80 18.245,79.686 32.686,65.245 33,47 33.314,28.754 17.771,14.306 0,14 -9.018,13.845 -9.033,-0.155 0,0"
         id="path2895"
         style="fill:#f89734;fill-opacity:1;fill-rule:nonzero;stroke:none" />
    </g>
  </g>
</svg>
